<?xml version="1.0" standalone="no"?><!DOCTYPE svg PUBLIC "-//W3C//DTD SVG 1.1//EN" "http://www.w3.org/Graphics/SVG/1.1/DTD/svg11.dtd"><svg class="icon" width="200px" height="200.00px" viewBox="0 0 1024 1024" version="1.1" xmlns="http://www.w3.org/2000/svg"><path fill="#666666" d="M21.333333 0v1024"  /><path fill="#666666" d="M42.666667 0v1024"  /><path fill="#666666" d="M64 0v1024"  /><path fill="#666666" d="M85.333333 0v1024"  /><path fill="#666666" d="M106.666667 0v1024"  /><path fill="#666666" d="M128 0v1024"  /><path fill="#666666" d="M149.333333 0v1024"  /><path fill="#666666" d="M170.666667 0v1024"  /><path fill="#666666" d="M192 0v1024"  /><path fill="#666666" d="M213.333333 0v1024"  /><path fill="#666666" d="M234.666667 0v1024"  /><path fill="#666666" d="M256 0v1024"  /><path fill="#666666" d="M277.333333 0v1024"  /><path fill="#666666" d="M298.666667 0v1024"  /><path fill="#666666" d="M320 0v1024"  /><path fill="#666666" d="M341.333333 0v1024"  /><path fill="#666666" d="M362.666667 0v1024"  /><path fill="#666666" d="M384 0v1024"  /><path fill="#666666" d="M405.333333 0v1024"  /><path fill="#666666" d="M426.666667 0v1024"  /><path fill="#666666" d="M448 0v1024"  /><path fill="#666666" d="M469.333333 0v1024"  /><path fill="#666666" d="M490.666667 0v1024"  /><path fill="#666666" d="M512 0v1024"  /><path fill="#666666" d="M533.333333 0v1024"  /><path fill="#666666" d="M554.666667 0v1024"  /><path fill="#666666" d="M576 0v1024"  /><path fill="#666666" d="M597.333333 0v1024"  /><path fill="#666666" d="M618.666667 0v1024"  /><path fill="#666666" d="M640 0v1024"  /><path fill="#666666" d="M661.333333 0v1024"  /><path fill="#666666" d="M682.666667 0v1024"  /><path fill="#666666" d="M704 0v1024"  /><path fill="#666666" d="M725.333333 0v1024"  /><path fill="#666666" d="M746.666667 0v1024"  /><path fill="#666666" d="M768 0v1024"  /><path fill="#666666" d="M789.333333 0v1024"  /><path fill="#666666" d="M810.666667 0v1024"  /><path fill="#666666" d="M832 0v1024"  /><path fill="#666666" d="M853.333333 0v1024"  /><path fill="#666666" d="M874.666667 0v1024"  /><path fill="#666666" d="M896 0v1024"  /><path fill="#666666" d="M917.333333 0v1024"  /><path fill="#666666" d="M938.666667 0v1024"  /><path fill="#666666" d="M960 0v1024"  /><path fill="#666666" d="M981.333333 0v1024"  /><path fill="#666666" d="M1002.666667 0v1024M0 21.333333h1024"  /><path fill="#666666" d="M0 42.666667h1024"  /><path fill="#666666" d="M0 64h1024"  /><path fill="#666666" d="M0 85.333333h1024"  /><path fill="#666666" d="M0 106.666667h1024"  /><path fill="#666666" d="M0 128h1024"  /><path fill="#666666" d="M0 149.333333h1024"  /><path fill="#666666" d="M0 170.666667h1024"  /><path fill="#666666" d="M0 192h1024"  /><path fill="#666666" d="M0 213.333333h1024"  /><path fill="#666666" d="M0 234.666667h1024"  /><path fill="#666666" d="M0 256h1024"  /><path fill="#666666" d="M0 277.333333h1024"  /><path fill="#666666" d="M0 298.666667h1024"  /><path fill="#666666" d="M0 320h1024"  /><path fill="#666666" d="M0 341.333333h1024"  /><path fill="#666666" d="M0 362.666667h1024"  /><path fill="#666666" d="M0 384h1024"  /><path fill="#666666" d="M0 405.333333h1024"  /><path fill="#666666" d="M0 426.666667h1024"  /><path fill="#666666" d="M0 448h1024"  /><path fill="#666666" d="M0 469.333333h1024"  /><path fill="#666666" d="M0 490.666667h1024"  /><path fill="#666666" d="M0 512h1024"  /><path fill="#666666" d="M0 533.333333h1024"  /><path fill="#666666" d="M0 554.666667h1024"  /><path fill="#666666" d="M0 576h1024"  /><path fill="#666666" d="M0 597.333333h1024"  /><path fill="#666666" d="M0 618.666667h1024"  /><path fill="#666666" d="M0 640h1024"  /><path fill="#666666" d="M0 661.333333h1024"  /><path fill="#666666" d="M0 682.666667h1024"  /><path fill="#666666" d="M0 704h1024"  /><path fill="#666666" d="M0 725.333333h1024"  /><path fill="#666666" d="M0 746.666667h1024"  /><path fill="#666666" d="M0 768h1024"  /><path fill="#666666" d="M0 789.333333h1024"  /><path fill="#666666" d="M0 810.666667h1024"  /><path fill="#666666" d="M0 832h1024"  /><path fill="#666666" d="M0 853.333333h1024"  /><path fill="#666666" d="M0 874.666667h1024"  /><path fill="#666666" d="M0 896h1024"  /><path fill="#666666" d="M0 917.333333h1024"  /><path fill="#666666" d="M0 938.666667h1024"  /><path fill="#666666" d="M0 960h1024"  /><path fill="#666666" d="M0 981.333333h1024"  /><path fill="#666666" d="M0 1002.666667h1024"  /><path fill="#666666" d="M810 274L572 512l238 238-60 60L512 572 274 810l-60-60L452 512 214 274l60-60L512 452l238-238z"  /></svg>